<svg width="174" height="216" viewBox="0 0 174 216" fill="none" xmlns="http://www.w3.org/2000/svg">
<path d="M144 162L164.931 132.696C167.759 128.738 174 130.738 174 135.602V211C174 213.761 171.761 216 169 216H117.343C113.349 216 110.967 211.549 113.182 208.226L144 162Z" fill="#8AE8C6"/>
<mask id="path-2-inside-1_1655_382" fill="white">
<path d="M132.716 0C138.02 2.4245e-05 143.107 2.10699 146.857 5.85742L168.143 27.1426C171.893 30.8932 174 35.9801 174 41.2842V104.802C174 108.839 172.777 112.782 170.494 116.112L107.958 207.311C104.229 212.749 98.0583 216 91.4639 216H41.2842C35.9801 216 30.8932 213.893 27.1426 210.143L5.85742 188.857C2.10699 185.107 2.42453e-05 180.02 0 174.716L0 50.2842C2.32348e-05 44.9801 2.10699 39.8932 5.85742 36.1426L36.1426 5.85742C39.8932 2.10699 44.9801 2.42454e-05 50.2842 0L132.716 0ZM68 78C56.9543 78 48 86.9543 48 98V138H106C117.046 138 126 129.046 126 118V78H68Z"/>
</mask>
<path d="M132.716 0C138.02 2.4245e-05 143.107 2.10699 146.857 5.85742L168.143 27.1426C171.893 30.8932 174 35.9801 174 41.2842V104.802C174 108.839 172.777 112.782 170.494 116.112L107.958 207.311C104.229 212.749 98.0583 216 91.4639 216H41.2842C35.9801 216 30.8932 213.893 27.1426 210.143L5.85742 188.857C2.10699 185.107 2.42453e-05 180.02 0 174.716L0 50.2842C2.32348e-05 44.9801 2.10699 39.8932 5.85742 36.1426L36.1426 5.85742C39.8932 2.10699 44.9801 2.42454e-05 50.2842 0L132.716 0ZM68 78C56.9543 78 48 86.9543 48 98V138H106C117.046 138 126 129.046 126 118V78H68Z" fill="#09B6C2"/>
<path d="M132.716 0L132.716 -10H132.716V0ZM146.857 5.85742L153.928 -1.21365L153.928 -1.21387L146.857 5.85742ZM168.143 27.1426L175.214 20.0717L175.214 20.0715L168.143 27.1426ZM174 41.2842L184 41.2842L184 41.2841L174 41.2842ZM174 104.802L184 104.802V104.802H174ZM170.494 116.112L178.741 121.768L178.741 121.768L170.494 116.112ZM107.958 207.311L116.205 212.966L116.205 212.966L107.958 207.311ZM41.2842 216L41.2841 226H41.2842V216ZM27.1426 210.143L20.0715 217.214L20.0717 217.214L27.1426 210.143ZM5.85742 188.857L-1.21387 195.928L-1.21365 195.928L5.85742 188.857ZM0 174.716L-10 174.716L-10 174.716L0 174.716ZM0 50.2842L-10 50.2841V50.2842H0ZM5.85742 36.1426L-1.21365 29.0715L-1.21387 29.0717L5.85742 36.1426ZM36.1426 5.85742L29.0717 -1.21387L29.0715 -1.21365L36.1426 5.85742ZM50.2842 0L50.2842 -10L50.2841 -10L50.2842 0ZM68 78L68 68L68 68L68 78ZM48 138H38V148H48V138ZM126 78H136V68H126V78ZM132.716 0L132.716 10C135.368 10 137.911 11.0535 139.787 12.9287L146.857 5.85742L153.928 -1.21387C148.302 -6.83951 140.672 -9.99996 132.716 -10L132.716 0ZM146.857 5.85742L139.786 12.9285L161.072 34.2136L168.143 27.1426L175.214 20.0715L153.928 -1.21365L146.857 5.85742ZM168.143 27.1426L161.071 34.2134C162.947 36.0888 164 38.6322 164 41.2842L174 41.2842L184 41.2841C184 33.328 180.84 25.6977 175.214 20.0717L168.143 27.1426ZM174 41.2842H164V104.802H174H184V41.2842H174ZM174 104.802L164 104.802C164 106.82 163.389 108.792 162.247 110.457L170.494 116.112L178.741 121.768C182.166 116.773 184 110.859 184 104.802L174 104.802ZM170.494 116.112L162.247 110.457L99.7107 201.655L107.958 207.311L116.205 212.966L178.741 121.768L170.494 116.112ZM107.958 207.311L99.7108 201.655C97.8459 204.375 94.7607 206 91.4639 206V216V226C101.356 226 110.611 221.123 116.205 212.966L107.958 207.311ZM91.4639 216V206H41.2842V216V226H91.4639V216ZM41.2842 216L41.2842 206C38.6322 206 36.0888 204.947 34.2134 203.071L27.1426 210.143L20.0717 217.214C25.6977 222.84 33.328 226 41.2841 226L41.2842 216ZM27.1426 210.143L34.2136 203.072L12.9285 181.786L5.85742 188.857L-1.21365 195.928L20.0715 217.214L27.1426 210.143ZM5.85742 188.857L12.9287 181.787C11.0535 179.911 10 177.368 10 174.716L0 174.716L-10 174.716C-9.99996 182.672 -6.83951 190.302 -1.21387 195.928L5.85742 188.857ZM0 174.716H10L10 50.2842H0H-10L-10 174.716H0ZM0 50.2842L10 50.2842C10 47.6322 11.0535 45.0888 12.9287 43.2134L5.85742 36.1426L-1.21387 29.0717C-6.83951 34.6977 -9.99997 42.328 -10 50.2841L0 50.2842ZM5.85742 36.1426L12.9285 43.2136L43.2136 12.9285L36.1426 5.85742L29.0715 -1.21365L-1.21365 29.0715L5.85742 36.1426ZM36.1426 5.85742L43.2134 12.9287C45.0888 11.0535 47.6322 10 50.2842 10L50.2842 0L50.2841 -10C42.328 -9.99996 34.6977 -6.83951 29.0717 -1.21387L36.1426 5.85742ZM50.2842 0V10L132.716 10V0V-10L50.2842 -10V0ZM68 78L68 68C51.4315 68 38 81.4315 38 98H48H58C58 92.4772 62.4772 88 68 88L68 78ZM48 98H38V138H48H58V98H48ZM48 138V148H106V138V128H48V138ZM106 138V148C122.569 148 136 134.569 136 118H126H116C116 123.523 111.523 128 106 128V138ZM126 118H136V78H126H116V118H126ZM126 78V68H68V78V88H126V78Z" fill="#09B6C2" mask="url(#path-2-inside-1_1655_382)"/>
</svg>
