<svg width="95" height="40" viewBox="0 0 95 40" fill="none" xmlns="http://www.w3.org/2000/svg">
<g clip-path="url(#clip0_1655_389)">
<path d="M30.4004 37.4004H21.1211L26.4883 29.3486L30.4004 23.8711V37.4004Z" stroke="#8AE8C6" stroke-width="1.2"/>
<mask id="path-2-inside-1_1655_389" fill="white">
<path d="M24.6719 2C25.2022 2.00008 25.7109 2.21094 26.0859 2.58594L30.4141 6.91406C30.7891 7.28906 30.9999 7.7978 31 8.32812V19.8799C31 20.2835 30.8776 20.6778 30.6494 21.0107L19.5957 37.1309C19.2228 37.6747 18.6057 38 17.9463 38H8.32812C7.7978 37.9999 7.28906 37.7891 6.91406 37.4141L2.58594 33.0859C2.21094 32.7109 2.00008 32.2022 2 31.6719V9.82812C2.00008 9.2978 2.21094 8.78906 2.58594 8.41406L8.41406 2.58594C8.78906 2.21094 9.2978 2.00008 9.82812 2H24.6719ZM12 15C10.8954 15 10 15.8954 10 17V25H21C22.1046 25 23 24.1046 23 23V15H12Z"/>
</mask>
<path d="M24.6719 2L24.6721 0.8H24.6719V2ZM26.0859 2.58594L25.2374 3.43447L25.2374 3.43447L26.0859 2.58594ZM30.4141 6.91406L31.2626 6.06553L31.2626 6.06553L30.4141 6.91406ZM31 8.32812L32.2 8.32813L32.2 8.32794L31 8.32812ZM30.6494 21.0107L31.6391 21.6894L31.6392 21.6892L30.6494 21.0107ZM19.5957 37.1309L20.5854 37.8095L20.5854 37.8095L19.5957 37.1309ZM8.32812 38L8.32794 39.2H8.32812V38ZM6.91406 37.4141L6.06553 38.2626L6.91406 37.4141ZM2.58594 33.0859L3.43447 32.2374L3.43447 32.2374L2.58594 33.0859ZM2 31.6719L0.8 31.6719L0.8 31.6721L2 31.6719ZM2 9.82812L0.8 9.82794V9.82812H2ZM2.58594 8.41406L3.43447 9.26259L3.43447 9.26259L2.58594 8.41406ZM8.41406 2.58594L7.56553 1.73741L7.56553 1.73741L8.41406 2.58594ZM9.82812 2L9.82812 0.8L9.82794 0.8L9.82812 2ZM10 25H8.8V26.2H10V25ZM23 15H24.2V13.8H23V15ZM24.6719 2L24.6717 3.2C24.8837 3.20003 25.0873 3.28437 25.2374 3.43447L26.0859 2.58594L26.9345 1.73741C26.3346 1.1375 25.5207 0.800128 24.6721 0.8L24.6719 2ZM26.0859 2.58594L25.2374 3.43447L29.5655 7.76259L30.4141 6.91406L31.2626 6.06553L26.9345 1.73741L26.0859 2.58594ZM30.4141 6.91406L29.5655 7.76259C29.7156 7.91269 29.8 8.11631 29.8 8.32831L31 8.32812L32.2 8.32794C32.1999 7.47929 31.8625 6.66544 31.2626 6.06553L30.4141 6.91406ZM31 8.32812H29.8V19.8799H31H32.2V8.32812H31ZM31 19.8799H29.8C29.8 20.0409 29.7511 20.1988 29.6596 20.3323L30.6494 21.0107L31.6392 21.6892C32.0041 21.1569 32.2 20.5261 32.2 19.8799H31ZM30.6494 21.0107L29.6597 20.3321L18.606 36.4522L19.5957 37.1309L20.5854 37.8095L31.6391 21.6894L30.6494 21.0107ZM19.5957 37.1309L18.606 36.4522C18.4567 36.67 18.2098 36.8 17.9463 36.8V38V39.2C19.0017 39.2 19.9888 38.6795 20.5854 37.8095L19.5957 37.1309ZM17.9463 38V36.8H8.32812V38V39.2H17.9463V38ZM8.32812 38L8.32831 36.8C8.11631 36.8 7.91269 36.7156 7.76259 36.5655L6.91406 37.4141L6.06553 38.2626C6.66544 38.8625 7.47929 39.1999 8.32794 39.2L8.32812 38ZM6.91406 37.4141L7.76259 36.5655L3.43447 32.2374L2.58594 33.0859L1.73741 33.9345L6.06553 38.2626L6.91406 37.4141ZM2.58594 33.0859L3.43447 32.2374C3.28437 32.0873 3.20003 31.8837 3.2 31.6717L2 31.6719L0.8 31.6721C0.800128 32.5207 1.1375 33.3346 1.73741 33.9345L2.58594 33.0859ZM2 31.6719H3.2V9.82812H2H0.8V31.6719H2ZM2 9.82812L3.2 9.82831C3.20003 9.61631 3.28437 9.41269 3.43447 9.26259L2.58594 8.41406L1.73741 7.56553C1.1375 8.16544 0.800128 8.97929 0.8 9.82794L2 9.82812ZM2.58594 8.41406L3.43447 9.26259L9.26259 3.43447L8.41406 2.58594L7.56553 1.73741L1.73741 7.56553L2.58594 8.41406ZM8.41406 2.58594L9.26259 3.43447C9.41269 3.28437 9.61631 3.20003 9.82831 3.2L9.82812 2L9.82794 0.8C8.97929 0.800128 8.16544 1.1375 7.56553 1.73741L8.41406 2.58594ZM9.82812 2V3.2H24.6719V2V0.8H9.82812V2ZM12 15V13.8C10.2327 13.8 8.8 15.2327 8.8 17H10H11.2C11.2 16.5582 11.5582 16.2 12 16.2V15ZM10 17H8.8V25H10H11.2V17H10ZM10 25V26.2H21V25V23.8H10V25ZM21 25V26.2C22.7673 26.2 24.2 24.7673 24.2 23H23H21.8C21.8 23.4418 21.4418 23.8 21 23.8V25ZM23 23H24.2V15H23H21.8V23H23ZM23 15V13.8H12V15V16.2H23V15Z" fill="#09B6C2" mask="url(#path-2-inside-1_1655_389)"/>
<path d="M47.88 28.24C46.4933 28.24 45.2667 27.9333 44.2 27.32C43.1333 26.7067 42.2933 25.8533 41.68 24.76C41.08 23.6667 40.78 22.4133 40.78 21C40.78 19.9333 40.9533 18.96 41.3 18.08C41.6467 17.2 42.1333 16.44 42.76 15.8C43.3867 15.1467 44.1267 14.6467 44.98 14.3C45.8467 13.94 46.7933 13.76 47.82 13.76C49.2067 13.76 50.4267 14.0733 51.48 14.7C52.5467 15.3133 53.3733 16.1667 53.96 17.26C54.56 18.34 54.86 19.5867 54.86 21C54.86 22.4133 54.56 23.6667 53.96 24.76C53.3733 25.8533 52.5533 26.7067 51.5 27.32C50.46 27.9333 49.2533 28.24 47.88 28.24ZM53.32 28.82L48.22 23.66L49.72 22.22L54.78 27.36L53.32 28.82ZM47.88 26.12C48.7867 26.12 49.5867 25.9 50.28 25.46C50.9733 25.02 51.5133 24.42 51.9 23.66C52.3 22.8867 52.5 22 52.5 21C52.5 20 52.3 19.12 51.9 18.36C51.5 17.5867 50.9467 16.98 50.24 16.54C49.5467 16.1 48.74 15.88 47.82 15.88C46.9133 15.88 46.1067 16.1 45.4 16.54C44.7067 16.98 44.1533 17.5867 43.74 18.36C43.34 19.12 43.14 20 43.14 21C43.14 22 43.34 22.8867 43.74 23.66C44.1533 24.42 44.7133 25.02 45.42 25.46C46.14 25.9 46.96 26.12 47.88 26.12ZM62.6431 28L62.5431 26.12V22.86C62.5431 22.18 62.4698 21.6133 62.3231 21.16C62.1898 20.6933 61.9631 20.34 61.6431 20.1C61.3365 19.8467 60.9231 19.72 60.4031 19.72C59.9231 19.72 59.5031 19.82 59.1431 20.02C58.7831 20.22 58.4765 20.5333 58.2231 20.96L56.2631 20.24C56.4765 19.8 56.7565 19.3933 57.1031 19.02C57.4631 18.6333 57.9098 18.3267 58.4431 18.1C58.9898 17.8733 59.6431 17.76 60.4031 17.76C61.3765 17.76 62.1898 17.9533 62.8431 18.34C63.4965 18.7133 63.9765 19.2533 64.2831 19.96C64.6031 20.6667 64.7631 21.52 64.7631 22.52L64.7031 28H62.6431ZM59.7631 28.24C58.5631 28.24 57.6298 27.9733 56.9631 27.44C56.3098 26.9067 55.9831 26.1533 55.9831 25.18C55.9831 24.14 56.3298 23.3467 57.0231 22.8C57.7298 22.2533 58.7098 21.98 59.9631 21.98H62.6431V23.7H60.6831C59.7898 23.7 59.1631 23.8267 58.8031 24.08C58.4431 24.32 58.2631 24.6667 58.2631 25.12C58.2631 25.5067 58.4165 25.8133 58.7231 26.04C59.0431 26.2533 59.4831 26.36 60.0431 26.36C60.5498 26.36 60.9898 26.2467 61.3631 26.02C61.7365 25.7933 62.0231 25.4933 62.2231 25.12C62.4365 24.7467 62.5431 24.3267 62.5431 23.86H63.2031C63.2031 25.22 62.9298 26.2933 62.3831 27.08C61.8365 27.8533 60.9631 28.24 59.7631 28.24ZM67.977 32.24C67.657 32.24 67.297 32.18 66.897 32.06C66.5104 31.94 66.137 31.7867 65.777 31.6L66.617 29.78C66.8704 29.9 67.1037 29.9933 67.317 30.06C67.5304 30.14 67.7037 30.18 67.837 30.18C68.157 30.18 68.4237 30.0933 68.637 29.92C68.8637 29.76 69.0437 29.52 69.177 29.2L70.357 26.44L73.737 18H76.177L71.537 29.06C71.257 29.7 70.9704 30.26 70.677 30.74C70.397 31.22 70.0437 31.5867 69.617 31.84C69.1904 32.1067 68.6437 32.24 67.977 32.24ZM69.757 28L65.277 18H67.717L71.197 26.42L71.917 28H69.757ZM80.7503 28.24C80.0836 28.24 79.4703 28.14 78.9103 27.94C78.3503 27.74 77.8703 27.46 77.4703 27.1C77.0703 26.7267 76.7636 26.2933 76.5503 25.8L78.4903 24.94C78.6903 25.3133 78.9836 25.6267 79.3703 25.88C79.7703 26.1333 80.2103 26.26 80.6903 26.26C81.2103 26.26 81.6236 26.1733 81.9303 26C82.2503 25.8133 82.4103 25.56 82.4103 25.24C82.4103 24.9333 82.2903 24.7 82.0503 24.54C81.8103 24.3667 81.4703 24.2267 81.0303 24.12L80.0903 23.86C79.1436 23.62 78.4036 23.24 77.8703 22.72C77.337 22.1867 77.0703 21.58 77.0703 20.9C77.0703 19.9 77.3903 19.1267 78.0303 18.58C78.6836 18.0333 79.617 17.76 80.8303 17.76C81.4436 17.76 82.0036 17.8533 82.5103 18.04C83.0303 18.2133 83.477 18.4667 83.8503 18.8C84.2236 19.12 84.4836 19.5 84.6303 19.94L82.7703 20.78C82.637 20.4467 82.3836 20.1933 82.0103 20.02C81.637 19.8333 81.2236 19.74 80.7703 19.74C80.317 19.74 79.9636 19.84 79.7103 20.04C79.457 20.2267 79.3303 20.4933 79.3303 20.84C79.3303 21.04 79.4436 21.2267 79.6703 21.4C79.897 21.56 80.2236 21.6933 80.6503 21.8L81.8303 22.08C82.4836 22.24 83.017 22.4933 83.4303 22.84C83.8436 23.1733 84.1503 23.5533 84.3503 23.98C84.5503 24.3933 84.6503 24.8133 84.6503 25.24C84.6503 25.84 84.477 26.3667 84.1303 26.82C83.797 27.2733 83.337 27.6267 82.7503 27.88C82.1636 28.12 81.497 28.24 80.7503 28.24ZM92.1267 28L92.0267 26.12V22.86C92.0267 22.18 91.9534 21.6133 91.8067 21.16C91.6734 20.6933 91.4467 20.34 91.1267 20.1C90.8201 19.8467 90.4067 19.72 89.8867 19.72C89.4067 19.72 88.9867 19.82 88.6267 20.02C88.2667 20.22 87.9601 20.5333 87.7067 20.96L85.7467 20.24C85.9601 19.8 86.2401 19.3933 86.5867 19.02C86.9467 18.6333 87.3934 18.3267 87.9267 18.1C88.4734 17.8733 89.1267 17.76 89.8867 17.76C90.8601 17.76 91.6734 17.9533 92.3267 18.34C92.9801 18.7133 93.4601 19.2533 93.7667 19.96C94.0867 20.6667 94.2467 21.52 94.2467 22.52L94.1867 28H92.1267ZM89.2467 28.24C88.0467 28.24 87.1134 27.9733 86.4467 27.44C85.7934 26.9067 85.4667 26.1533 85.4667 25.18C85.4667 24.14 85.8134 23.3467 86.5067 22.8C87.2134 22.2533 88.1934 21.98 89.4467 21.98H92.1267V23.7H90.1667C89.2734 23.7 88.6467 23.8267 88.2867 24.08C87.9267 24.32 87.7467 24.6667 87.7467 25.12C87.7467 25.5067 87.9001 25.8133 88.2067 26.04C88.5267 26.2533 88.9667 26.36 89.5267 26.36C90.0334 26.36 90.4734 26.2467 90.8467 26.02C91.2201 25.7933 91.5067 25.4933 91.7067 25.12C91.9201 24.7467 92.0267 24.3267 92.0267 23.86H92.6867C92.6867 25.22 92.4134 26.2933 91.8667 27.08C91.3201 27.8533 90.4467 28.24 89.2467 28.24Z" fill="url(#paint0_linear_1655_389)"/>
</g>
<defs>
<linearGradient id="paint0_linear_1655_389" x1="40" y1="17.5" x2="110" y2="17.5" gradientUnits="userSpaceOnUse">
<stop offset="0.177885" stop-color="#8AE8C6"/>
<stop offset="0.447115" stop-color="#09B6C2"/>
</linearGradient>
<clipPath id="clip0_1655_389">
<rect width="95" height="40" fill="white"/>
</clipPath>
</defs>
</svg>
