<svg width="448" height="240" viewBox="0 0 448 240" fill="none" xmlns="http://www.w3.org/2000/svg">
<path d="M228.016 155.152C221.232 155.152 215.216 153.68 209.968 150.736C204.784 147.728 200.72 143.632 197.776 138.448C194.832 133.2 193.36 127.184 193.36 120.4C193.36 115.344 194.192 110.704 195.856 106.48C197.584 102.192 199.952 98.512 202.96 95.44C206.032 92.304 209.648 89.904 213.808 88.24C218.032 86.512 222.672 85.648 227.728 85.648C234.512 85.648 240.464 87.152 245.584 90.16C250.768 93.104 254.832 97.2 257.776 102.448C260.72 107.632 262.192 113.648 262.192 120.496C262.192 127.216 260.72 133.2 257.776 138.448C254.896 143.632 250.864 147.728 245.68 150.736C240.56 153.68 234.672 155.152 228.016 155.152ZM253.168 158.032L228.4 132.88L236.848 124.912L261.424 149.872L253.168 158.032ZM228.016 143.152C232.112 143.152 235.696 142.192 238.768 140.272C241.904 138.288 244.336 135.6 246.064 132.208C247.856 128.816 248.752 124.88 248.752 120.4C248.752 115.984 247.856 112.08 246.064 108.688C244.272 105.232 241.808 102.544 238.672 100.624C235.536 98.64 231.888 97.648 227.728 97.648C223.696 97.648 220.08 98.64 216.88 100.624C213.744 102.544 211.28 105.232 209.488 108.688C207.696 112.08 206.8 115.984 206.8 120.4C206.8 124.88 207.696 128.816 209.488 132.208C211.28 135.6 213.776 138.288 216.976 140.272C220.176 142.192 223.856 143.152 228.016 143.152ZM295.414 154L295.03 144.304V129.712C295.03 126.832 294.71 124.368 294.07 122.32C293.494 120.272 292.534 118.704 291.19 117.616C289.91 116.464 288.15 115.888 285.91 115.888C283.862 115.888 282.006 116.336 280.342 117.232C278.678 118.128 277.27 119.504 276.118 121.36L264.982 117.52C265.878 115.472 267.19 113.488 268.918 111.568C270.646 109.584 272.886 107.984 275.638 106.768C278.454 105.488 281.878 104.848 285.91 104.848C290.774 104.848 294.806 105.776 298.006 107.632C301.27 109.488 303.67 112.112 305.206 115.504C306.806 118.832 307.574 122.8 307.51 127.408L307.222 154H295.414ZM281.974 155.152C276.214 155.152 271.734 153.872 268.534 151.312C265.398 148.752 263.83 145.136 263.83 140.464C263.83 135.344 265.526 131.504 268.918 128.944C272.374 126.32 277.206 125.008 283.414 125.008H295.606V134.416H287.83C283.67 134.416 280.79 134.928 279.19 135.952C277.59 136.912 276.79 138.288 276.79 140.08C276.79 141.488 277.43 142.608 278.71 143.44C279.99 144.208 281.782 144.592 284.086 144.592C286.198 144.592 288.054 144.112 289.654 143.152C291.318 142.128 292.63 140.848 293.59 139.312C294.55 137.712 295.03 136.08 295.03 134.416H298.102C298.102 140.944 296.854 146.032 294.358 149.68C291.926 153.328 287.798 155.152 281.974 155.152ZM321.097 174.352C319.369 174.352 317.449 174 315.337 173.296C313.289 172.656 311.465 171.888 309.865 170.992L314.569 160.72C315.657 161.296 316.649 161.744 317.545 162.064C318.505 162.448 319.337 162.64 320.041 162.64C321.385 162.64 322.569 162.256 323.593 161.488C324.617 160.784 325.449 159.728 326.089 158.32L331.753 144.976L347.017 106H360.937L339.145 158.128C337.801 161.328 336.393 164.144 334.921 166.576C333.449 169.072 331.625 170.992 329.449 172.336C327.337 173.68 324.553 174.352 321.097 174.352ZM328.393 154L306.409 106H320.329L336.361 144.976L340.489 154H328.393ZM379.962 155.152C376.89 155.152 374.01 154.704 371.322 153.808C368.634 152.848 366.266 151.504 364.218 149.776C362.17 147.984 360.57 145.808 359.418 143.248L370.266 138.256C371.226 139.792 372.538 141.136 374.202 142.288C375.866 143.376 377.786 143.92 379.962 143.92C382.074 143.92 383.706 143.632 384.858 143.056C386.01 142.416 386.586 141.52 386.586 140.368C386.586 139.216 386.106 138.384 385.146 137.872C384.25 137.296 383.002 136.816 381.402 136.432L376.986 135.28C372.378 134.064 368.73 132.144 366.042 129.52C363.418 126.832 362.106 123.76 362.106 120.304C362.106 115.376 363.674 111.568 366.81 108.88C370.01 106.192 374.522 104.848 380.346 104.848C383.354 104.848 386.138 105.296 388.698 106.192C391.322 107.088 393.562 108.336 395.418 109.936C397.274 111.536 398.554 113.392 399.258 115.504L388.794 120.304C388.346 119.024 387.258 118 385.53 117.232C383.802 116.4 382.074 115.984 380.346 115.984C378.618 115.984 377.274 116.368 376.314 117.136C375.418 117.84 374.97 118.832 374.97 120.112C374.97 120.944 375.418 121.648 376.314 122.224C377.21 122.736 378.49 123.184 380.154 123.568L386.394 125.104C389.53 125.872 392.026 127.12 393.882 128.848C395.802 130.512 397.178 132.4 398.01 134.512C398.906 136.56 399.354 138.576 399.354 140.56C399.354 143.44 398.49 146 396.762 148.24C395.098 150.416 392.794 152.112 389.85 153.328C386.97 154.544 383.674 155.152 379.962 155.152ZM430.92 154L430.536 144.304V129.712C430.536 126.832 430.216 124.368 429.576 122.32C429 120.272 428.04 118.704 426.696 117.616C425.416 116.464 423.656 115.888 421.416 115.888C419.368 115.888 417.512 116.336 415.848 117.232C414.184 118.128 412.776 119.504 411.624 121.36L400.488 117.52C401.384 115.472 402.696 113.488 404.424 111.568C406.152 109.584 408.392 107.984 411.144 106.768C413.96 105.488 417.384 104.848 421.416 104.848C426.28 104.848 430.312 105.776 433.512 107.632C436.776 109.488 439.176 112.112 440.712 115.504C442.312 118.832 443.08 122.8 443.016 127.408L442.728 154H430.92ZM417.48 155.152C411.72 155.152 407.24 153.872 404.04 151.312C400.904 148.752 399.336 145.136 399.336 140.464C399.336 135.344 401.032 131.504 404.424 128.944C407.88 126.32 412.712 125.008 418.92 125.008H431.112V134.416H423.336C419.176 134.416 416.296 134.928 414.696 135.952C413.096 136.912 412.296 138.288 412.296 140.08C412.296 141.488 412.936 142.608 414.216 143.44C415.496 144.208 417.288 144.592 419.592 144.592C421.704 144.592 423.56 144.112 425.16 143.152C426.824 142.128 428.136 140.848 429.096 139.312C430.056 137.712 430.536 136.08 430.536 134.416H433.608C433.608 140.944 432.36 146.032 429.864 149.68C427.432 153.328 423.304 155.152 417.48 155.152Z" fill="url(#paint0_linear_1655_375)"/>
<path d="M169 135.603V211H117.343L148.116 164.838L169 135.603Z" stroke="#8AE8C6" stroke-width="10"/>
<mask id="path-3-inside-1_1655_375" fill="white">
<path d="M132.716 0C138.02 2.39767e-05 143.107 2.10699 146.857 5.85742L168.143 27.1426C171.893 30.8932 174 35.9801 174 41.2842V104.802C174 108.839 172.777 112.782 170.494 116.112L107.958 207.311C104.229 212.749 98.0583 216 91.4639 216H41.2842C35.9801 216 30.8932 213.893 27.1426 210.143L5.85742 188.857C2.10699 185.107 2.43318e-05 180.02 0 174.716L0 50.2842C2.32191e-05 44.9801 2.10699 39.8932 5.85742 36.1426L36.1426 5.85742C39.8932 2.10699 44.9801 2.4172e-05 50.2842 0L132.716 0ZM68 78C56.9543 78 48 86.9543 48 98V138H106C117.046 138 126 129.046 126 118V78H68Z"/>
</mask>
<path d="M132.716 0L132.716 -10H132.716V0ZM146.857 5.85742L153.928 -1.21365L153.928 -1.21387L146.857 5.85742ZM168.143 27.1426L175.214 20.0717L175.214 20.0715L168.143 27.1426ZM174 41.2842L184 41.2842L184 41.2841L174 41.2842ZM174 104.802L184 104.802V104.802H174ZM170.494 116.112L178.741 121.768L178.741 121.768L170.494 116.112ZM107.958 207.311L116.205 212.966L116.205 212.966L107.958 207.311ZM41.2842 216L41.2841 226H41.2842V216ZM27.1426 210.143L20.0715 217.214L20.0717 217.214L27.1426 210.143ZM5.85742 188.857L-1.21387 195.928L-1.21365 195.928L5.85742 188.857ZM0 174.716L-10 174.716L-10 174.716L0 174.716ZM0 50.2842L-10 50.2841V50.2842H0ZM5.85742 36.1426L-1.21365 29.0715L-1.21387 29.0717L5.85742 36.1426ZM36.1426 5.85742L29.0717 -1.21387L29.0715 -1.21365L36.1426 5.85742ZM50.2842 0L50.2842 -10L50.2841 -10L50.2842 0ZM68 78L68 68L68 68L68 78ZM48 138H38V148H48V138ZM106 138L106 148L106 148L106 138ZM126 78H136V68H126V78ZM132.716 0L132.716 10C135.368 10 137.911 11.0535 139.787 12.9287L146.857 5.85742L153.928 -1.21387C148.302 -6.83951 140.672 -9.99996 132.716 -10L132.716 0ZM146.857 5.85742L139.786 12.9285L161.072 34.2136L168.143 27.1426L175.214 20.0715L153.928 -1.21365L146.857 5.85742ZM168.143 27.1426L161.071 34.2134C162.947 36.0888 164 38.6322 164 41.2842L174 41.2842L184 41.2841C184 33.328 180.84 25.6977 175.214 20.0717L168.143 27.1426ZM174 41.2842H164V104.802H174H184V41.2842H174ZM174 104.802L164 104.802C164 106.82 163.389 108.792 162.247 110.457L170.494 116.112L178.741 121.768C182.166 116.773 184 110.859 184 104.802L174 104.802ZM170.494 116.112L162.247 110.457L99.7107 201.655L107.958 207.311L116.205 212.966L178.741 121.768L170.494 116.112ZM107.958 207.311L99.7108 201.655C97.8459 204.375 94.7607 206 91.4639 206V216V226C101.356 226 110.611 221.123 116.205 212.966L107.958 207.311ZM91.4639 216V206H41.2842V216V226H91.4639V216ZM41.2842 216L41.2842 206C38.6322 206 36.0888 204.947 34.2134 203.071L27.1426 210.143L20.0717 217.214C25.6977 222.84 33.328 226 41.2841 226L41.2842 216ZM27.1426 210.143L34.2136 203.072L12.9285 181.786L5.85742 188.857L-1.21365 195.928L20.0715 217.214L27.1426 210.143ZM5.85742 188.857L12.9287 181.787C11.0535 179.911 10 177.368 10 174.716L0 174.716L-10 174.716C-9.99996 182.672 -6.83951 190.302 -1.21387 195.928L5.85742 188.857ZM0 174.716H10L10 50.2842H0H-10L-10 174.716H0ZM0 50.2842L10 50.2842C10 47.6322 11.0535 45.0888 12.9287 43.2134L5.85742 36.1426L-1.21387 29.0717C-6.83951 34.6977 -9.99997 42.328 -10 50.2841L0 50.2842ZM5.85742 36.1426L12.9285 43.2136L43.2136 12.9285L36.1426 5.85742L29.0715 -1.21365L-1.21365 29.0715L5.85742 36.1426ZM36.1426 5.85742L43.2134 12.9287C45.0888 11.0535 47.6322 10 50.2842 10L50.2842 0L50.2841 -10C42.328 -9.99996 34.6977 -6.83951 29.0717 -1.21387L36.1426 5.85742ZM50.2842 0V10L132.716 10V0V-10L50.2842 -10V0ZM68 78L68 68C51.4315 68 38 81.4315 38 98H48H58C58 92.4772 62.4772 88 68 88L68 78ZM48 98H38V138H48H58V98H48ZM48 138V148H106V138V128H48V138ZM106 138L106 148C122.569 148 136 134.569 136 118H126H116C116 123.523 111.523 128 106 128L106 138ZM126 118H136V78H126H116V118H126ZM126 78V68H68V78V88H126V78Z" fill="#09B6C2" mask="url(#path-3-inside-1_1655_375)"/>
<defs>
<linearGradient id="paint0_linear_1655_375" x1="190" y1="108.5" x2="448" y2="108.5" gradientUnits="userSpaceOnUse">
<stop offset="0.177885" stop-color="#8AE8C6"/>
<stop offset="0.447115" stop-color="#09B6C2"/>
</linearGradient>
</defs>
</svg>
