<svg width="95" height="40" viewBox="0 0 95 40" fill="none" xmlns="http://www.w3.org/2000/svg">
<g clip-path="url(#clip0_1659_286)">
<path d="M30 37H21.8691L26.832 29.5547L30 25.1201V37Z" stroke="#8AE8C6" stroke-width="2"/>
<mask id="path-2-inside-1_1659_286" fill="white">
<path d="M24.6719 2C25.2022 2.00008 25.7109 2.21094 26.0859 2.58594L30.4141 6.91406C30.7891 7.28906 30.9999 7.7978 31 8.32812V19.8799C31 20.2835 30.8776 20.6778 30.6494 21.0107L19.5957 37.1309C19.2228 37.6747 18.6057 38 17.9463 38H8.32812C7.7978 37.9999 7.28906 37.7891 6.91406 37.4141L2.58594 33.0859C2.21094 32.7109 2.00008 32.2022 2 31.6719V9.82812C2.00008 9.2978 2.21094 8.78906 2.58594 8.41406L8.41406 2.58594C8.78906 2.21094 9.2978 2.00008 9.82812 2H24.6719ZM12 15C10.8954 15 10 15.8954 10 17V25H21C22.1046 25 23 24.1046 23 23V15H12Z"/>
</mask>
<path d="M24.6719 2L24.6722 0H24.6719V2ZM26.0859 2.58594L24.6717 4.00015L26.0859 2.58594ZM30.4141 6.91406L31.8283 5.49985L30.4141 6.91406ZM31 8.32812H33V8.32782L31 8.32812ZM30.6494 21.0107L32.2989 22.1418L32.2991 22.1415L30.6494 21.0107ZM19.5957 37.1309L21.2452 38.2619L21.2452 38.2619L19.5957 37.1309ZM8.32812 38L8.32782 40H8.32812V38ZM6.91406 37.4141L5.49985 38.8283L6.91406 37.4141ZM2.58594 33.0859L4.00015 31.6717L2.58594 33.0859ZM2 31.6719H0V31.6722L2 31.6719ZM2 9.82812L0 9.82782V9.82812H2ZM9.82812 2V0H9.82782L9.82812 2ZM12 15V13V15ZM10 25H8V27H10V25ZM21 25V27V25ZM23 15H25V13H23V15ZM24.6719 2L24.6716 4L24.6717 4.00015L26.0859 2.58594L27.5002 1.17172C26.7503 0.421881 25.7331 0.000160336 24.6722 0L24.6719 2ZM26.0859 2.58594L24.6717 4.00015L28.9998 8.32828L30.4141 6.91406L31.8283 5.49985L27.5002 1.17172L26.0859 2.58594ZM30.4141 6.91406L28.9998 8.32828L29 8.32843L31 8.32812L33 8.32782C32.9998 7.26695 32.5781 6.24969 31.8283 5.49985L30.4141 6.91406ZM31 8.32812H29V19.8799H31H33V8.32812H31ZM31 19.8799H29L28.9998 19.88L30.6494 21.0107L32.2991 22.1415C32.7551 21.4762 33 20.6879 33 19.8799H31ZM30.6494 21.0107L29 19.8797L17.9462 35.9998L19.5957 37.1309L21.2452 38.2619L32.2989 22.1418L30.6494 21.0107ZM19.5957 37.1309L17.9462 35.9998L17.9463 36V38V40C19.2657 40 20.4995 39.3493 21.2452 38.2619L19.5957 37.1309ZM17.9463 38V36H8.32812V38V40H17.9463V38ZM8.32812 38L8.32843 36L8.32828 35.9998L6.91406 37.4141L5.49985 38.8283C6.24969 39.5781 7.26695 39.9998 8.32782 40L8.32812 38ZM6.91406 37.4141L8.32828 35.9998L4.00015 31.6717L2.58594 33.0859L1.17172 34.5002L5.49985 38.8283L6.91406 37.4141ZM2.58594 33.0859L4.00015 31.6717L4 31.6716L2 31.6719L0 31.6722C0.000160098 32.7331 0.421881 33.7503 1.17172 34.5002L2.58594 33.0859ZM2 31.6719H4V9.82812H2H0V31.6719H2ZM2 9.82812L4 9.82843L4.00015 9.82828L2.58594 8.41406L1.17172 6.99985C0.421881 7.74969 0.000159979 8.76695 0 9.82782L2 9.82812ZM2.58594 8.41406L4.00015 9.82828L9.82828 4.00015L8.41406 2.58594L6.99985 1.17172L1.17172 6.99985L2.58594 8.41406ZM8.41406 2.58594L9.82828 4.00015L9.82843 4L9.82812 2L9.82782 0C8.76695 0.000160098 7.74969 0.421881 6.99985 1.17172L8.41406 2.58594ZM9.82812 2V4H24.6719V2V0H9.82812V2ZM12 15V13C9.79086 13 8 14.7909 8 17H10H12V15ZM10 17H8V25H10H12V17H10ZM10 25V27H21V25V23H10V25ZM21 25V27C23.2091 27 25 25.2091 25 23H23H21V25ZM23 23H25V15H23H21V23H23ZM23 15V13H12V15V17H23V15Z" fill="#09B6C2" mask="url(#path-2-inside-1_1659_286)"/>
<path d="M44.88 28.24C43.4933 28.24 42.2667 27.9333 41.2 27.32C40.1333 26.7067 39.2933 25.8533 38.68 24.76C38.08 23.6667 37.78 22.4133 37.78 21C37.78 19.9333 37.9533 18.96 38.3 18.08C38.6467 17.2 39.1333 16.44 39.76 15.8C40.3867 15.1467 41.1267 14.6467 41.98 14.3C42.8467 13.94 43.7933 13.76 44.82 13.76C46.2067 13.76 47.4267 14.0733 48.48 14.7C49.5467 15.3133 50.3733 16.1667 50.96 17.26C51.56 18.34 51.86 19.5867 51.86 21C51.86 22.4133 51.56 23.6667 50.96 24.76C50.3733 25.8533 49.5533 26.7067 48.5 27.32C47.46 27.9333 46.2533 28.24 44.88 28.24ZM50.32 28.82L45.22 23.66L46.72 22.22L51.78 27.36L50.32 28.82ZM44.88 26.12C45.7867 26.12 46.5867 25.9 47.28 25.46C47.9733 25.02 48.5133 24.42 48.9 23.66C49.3 22.8867 49.5 22 49.5 21C49.5 20 49.3 19.12 48.9 18.36C48.5 17.5867 47.9467 16.98 47.24 16.54C46.5467 16.1 45.74 15.88 44.82 15.88C43.9133 15.88 43.1067 16.1 42.4 16.54C41.7067 16.98 41.1533 17.5867 40.74 18.36C40.34 19.12 40.14 20 40.14 21C40.14 22 40.34 22.8867 40.74 23.66C41.1533 24.42 41.7133 25.02 42.42 25.46C43.14 25.9 43.96 26.12 44.88 26.12ZM59.6431 28L59.5431 26.12V22.86C59.5431 22.18 59.4698 21.6133 59.3231 21.16C59.1898 20.6933 58.9631 20.34 58.6431 20.1C58.3365 19.8467 57.9231 19.72 57.4031 19.72C56.9231 19.72 56.5031 19.82 56.1431 20.02C55.7831 20.22 55.4765 20.5333 55.2231 20.96L53.2631 20.24C53.4765 19.8 53.7565 19.3933 54.1031 19.02C54.4631 18.6333 54.9098 18.3267 55.4431 18.1C55.9898 17.8733 56.6431 17.76 57.4031 17.76C58.3765 17.76 59.1898 17.9533 59.8431 18.34C60.4965 18.7133 60.9765 19.2533 61.2831 19.96C61.6031 20.6667 61.7631 21.52 61.7631 22.52L61.7031 28H59.6431ZM56.7631 28.24C55.5631 28.24 54.6298 27.9733 53.9631 27.44C53.3098 26.9067 52.9831 26.1533 52.9831 25.18C52.9831 24.14 53.3298 23.3467 54.0231 22.8C54.7298 22.2533 55.7098 21.98 56.9631 21.98H59.6431V23.7H57.6831C56.7898 23.7 56.1631 23.8267 55.8031 24.08C55.4431 24.32 55.2631 24.6667 55.2631 25.12C55.2631 25.5067 55.4165 25.8133 55.7231 26.04C56.0431 26.2533 56.4831 26.36 57.0431 26.36C57.5498 26.36 57.9898 26.2467 58.3631 26.02C58.7365 25.7933 59.0231 25.4933 59.2231 25.12C59.4365 24.7467 59.5431 24.3267 59.5431 23.86H60.2031C60.2031 25.22 59.9298 26.2933 59.3831 27.08C58.8365 27.8533 57.9631 28.24 56.7631 28.24ZM64.977 32.24C64.657 32.24 64.297 32.18 63.897 32.06C63.5104 31.94 63.137 31.7867 62.777 31.6L63.617 29.78C63.8704 29.9 64.1037 29.9933 64.317 30.06C64.5304 30.14 64.7037 30.18 64.837 30.18C65.157 30.18 65.4237 30.0933 65.637 29.92C65.8637 29.76 66.0437 29.52 66.177 29.2L67.357 26.44L70.737 18H73.177L68.537 29.06C68.257 29.7 67.9704 30.26 67.677 30.74C67.397 31.22 67.0437 31.5867 66.617 31.84C66.1904 32.1067 65.6437 32.24 64.977 32.24ZM66.757 28L62.277 18H64.717L68.197 26.42L68.917 28H66.757ZM77.7503 28.24C77.0836 28.24 76.4703 28.14 75.9103 27.94C75.3503 27.74 74.8703 27.46 74.4703 27.1C74.0703 26.7267 73.7636 26.2933 73.5503 25.8L75.4903 24.94C75.6903 25.3133 75.9836 25.6267 76.3703 25.88C76.7703 26.1333 77.2103 26.26 77.6903 26.26C78.2103 26.26 78.6236 26.1733 78.9303 26C79.2503 25.8133 79.4103 25.56 79.4103 25.24C79.4103 24.9333 79.2903 24.7 79.0503 24.54C78.8103 24.3667 78.4703 24.2267 78.0303 24.12L77.0903 23.86C76.1436 23.62 75.4036 23.24 74.8703 22.72C74.337 22.1867 74.0703 21.58 74.0703 20.9C74.0703 19.9 74.3903 19.1267 75.0303 18.58C75.6836 18.0333 76.617 17.76 77.8303 17.76C78.4436 17.76 79.0036 17.8533 79.5103 18.04C80.0303 18.2133 80.477 18.4667 80.8503 18.8C81.2236 19.12 81.4836 19.5 81.6303 19.94L79.7703 20.78C79.637 20.4467 79.3836 20.1933 79.0103 20.02C78.637 19.8333 78.2236 19.74 77.7703 19.74C77.317 19.74 76.9636 19.84 76.7103 20.04C76.457 20.2267 76.3303 20.4933 76.3303 20.84C76.3303 21.04 76.4436 21.2267 76.6703 21.4C76.897 21.56 77.2236 21.6933 77.6503 21.8L78.8303 22.08C79.4836 22.24 80.017 22.4933 80.4303 22.84C80.8436 23.1733 81.1503 23.5533 81.3503 23.98C81.5503 24.3933 81.6503 24.8133 81.6503 25.24C81.6503 25.84 81.477 26.3667 81.1303 26.82C80.797 27.2733 80.337 27.6267 79.7503 27.88C79.1636 28.12 78.497 28.24 77.7503 28.24ZM89.1267 28L89.0267 26.12V22.86C89.0267 22.18 88.9534 21.6133 88.8067 21.16C88.6734 20.6933 88.4467 20.34 88.1267 20.1C87.8201 19.8467 87.4067 19.72 86.8867 19.72C86.4067 19.72 85.9867 19.82 85.6267 20.02C85.2667 20.22 84.9601 20.5333 84.7067 20.96L82.7467 20.24C82.9601 19.8 83.2401 19.3933 83.5867 19.02C83.9467 18.6333 84.3934 18.3267 84.9267 18.1C85.4734 17.8733 86.1267 17.76 86.8867 17.76C87.8601 17.76 88.6734 17.9533 89.3267 18.34C89.9801 18.7133 90.4601 19.2533 90.7667 19.96C91.0867 20.6667 91.2467 21.52 91.2467 22.52L91.1867 28H89.1267ZM86.2467 28.24C85.0467 28.24 84.1134 27.9733 83.4467 27.44C82.7934 26.9067 82.4667 26.1533 82.4667 25.18C82.4667 24.14 82.8134 23.3467 83.5067 22.8C84.2134 22.2533 85.1934 21.98 86.4467 21.98H89.1267V23.7H87.1667C86.2734 23.7 85.6467 23.8267 85.2867 24.08C84.9267 24.32 84.7467 24.6667 84.7467 25.12C84.7467 25.5067 84.9001 25.8133 85.2067 26.04C85.5267 26.2533 85.9667 26.36 86.5267 26.36C87.0334 26.36 87.4734 26.2467 87.8467 26.02C88.2201 25.7933 88.5067 25.4933 88.7067 25.12C88.9201 24.7467 89.0267 24.3267 89.0267 23.86H89.6867C89.6867 25.22 89.4134 26.2933 88.8667 27.08C88.3201 27.8533 87.4467 28.24 86.2467 28.24Z" fill="url(#paint0_linear_1659_286)"/>
</g>
<defs>
<linearGradient id="paint0_linear_1659_286" x1="37" y1="17.5" x2="107" y2="17.5" gradientUnits="userSpaceOnUse">
<stop offset="0.177885" stop-color="#8AE8C6"/>
<stop offset="0.447115" stop-color="#09B6C2"/>
</linearGradient>
<clipPath id="clip0_1659_286">
<rect width="95" height="40" fill="white"/>
</clipPath>
</defs>
</svg>
